{
  "asset": {
    "generator": "Khronos glTF Blender I/O v1.8.19",
    "version": "2.0"
  },
  "scene": 0,
  "scenes": [
    {
      "name": "Scene",
      "nodes": [3]
    }
  ],
  "nodes": [
    {
      "mesh": 0,
      "name": "bottle",
      "scale": [4, 4, 4]
    },
    {
      "mesh": 1,
      "name": "cap",
      "scale": [4, 4, 4]
    },
    {
      "mesh": 2,
      "name": "liquid",
      "scale": [4, 4, 4]
    },
    {
      "children": [0, 1, 2],
      "name": "item_smallHeal",
      "scale": [0.31999993324279785, 0.3999999165534973, 0.31999993324279785]
    }
  ],
  "materials": [
    {
      "alphaMode": "BLEND",
      "doubleSided": true,
      "name": "transparent",
      "pbrMetallicRoughness": {
        "baseColorFactor": [
          0.016434859484434128, 0.0835309848189354, 0.004579208325594664,
          0.31496065855026245
        ],
        "metallicFactor": 0,
        "roughnessFactor": 0.5
      }
    },
    {
      "doubleSided": true,
      "name": "etiquette",
      "pbrMetallicRoughness": {
        "baseColorFactor": [
          0.800000011920929, 0.800000011920929, 0.800000011920929, 1
        ],
        "metallicFactor": 0,
        "roughnessFactor": 0.5
      }
    },
    {
      "doubleSided": true,
      "name": "bouchon",
      "pbrMetallicRoughness": {
        "baseColorFactor": [0, 0, 0, 1],
        "metallicFactor": 0,
        "roughnessFactor": 0.5
      }
    },
    {
      "doubleSided": true,
      "name": "liquid",
      "pbrMetallicRoughness": {
        "baseColorFactor": [
          0.007112693041563034, 0.04696038365364075, 0.008091295138001442, 1
        ],
        "metallicFactor": 0,
        "roughnessFactor": 0.5
      }
    }
  ],
  "meshes": [
    {
      "name": "Cylinder",
      "primitives": [
        {
          "attributes": {
            "POSITION": 0,
            "NORMAL": 1,
            "TEXCOORD_0": 2
          },
          "indices": 3,
          "material": 0
        },
        {
          "attributes": {
            "POSITION": 4,
            "NORMAL": 5,
            "TEXCOORD_0": 6
          },
          "indices": 7,
          "material": 1
        }
      ]
    },
    {
      "name": "Cylinder.001",
      "primitives": [
        {
          "attributes": {
            "POSITION": 8,
            "NORMAL": 9,
            "TEXCOORD_0": 10
          },
          "indices": 11,
          "material": 2
        }
      ]
    },
    {
      "name": "Cylinder.002",
      "primitives": [
        {
          "attributes": {
            "POSITION": 12,
            "NORMAL": 13,
            "TEXCOORD_0": 14
          },
          "indices": 15,
          "material": 3
        }
      ]
    }
  ],
  "accessors": [
    {
      "bufferView": 0,
      "componentType": 5126,
      "count": 264,
      "max": [0.06035863235592842, 0.2763063907623291, 0.06042091175913811],
      "min": [
        -0.06087105721235275, -9.214787155542581e-9, -0.060420941561460495
      ],
      "type": "VEC3"
    },
    {
      "bufferView": 1,
      "componentType": 5126,
      "count": 264,
      "type": "VEC3"
    },
    {
      "bufferView": 2,
      "componentType": 5126,
      "count": 264,
      "type": "VEC2"
    },
    {
      "bufferView": 3,
      "componentType": 5123,
      "count": 1050,
      "type": "SCALAR"
    },
    {
      "bufferView": 4,
      "componentType": 5126,
      "count": 66,
      "max": [0.06035863235592842, 0.1722998470067978, 0.06042091175913811],
      "min": [
        -0.06087105721235275, 0.043242499232292175, -0.060420941561460495
      ],
      "type": "VEC3"
    },
    {
      "bufferView": 5,
      "componentType": 5126,
      "count": 66,
      "type": "VEC3"
    },
    {
      "bufferView": 6,
      "componentType": 5126,
      "count": 66,
      "type": "VEC2"
    },
    {
      "bufferView": 7,
      "componentType": 5123,
      "count": 192,
      "type": "SCALAR"
    },
    {
      "bufferView": 8,
      "componentType": 5126,
      "count": 299,
      "max": [0.03403507545590401, 0.3092418313026428, 0.03139167279005051],
      "min": [-0.03403497859835625, 0.27103063464164734, -0.03244667872786522],
      "type": "VEC3"
    },
    {
      "bufferView": 9,
      "componentType": 5126,
      "count": 299,
      "type": "VEC3"
    },
    {
      "bufferView": 10,
      "componentType": 5126,
      "count": 299,
      "type": "VEC2"
    },
    {
      "bufferView": 11,
      "componentType": 5123,
      "count": 1140,
      "type": "SCALAR"
    },
    {
      "bufferView": 12,
      "componentType": 5126,
      "count": 263,
      "max": [0.058514200150966644, 0.25354689359664917, 0.05856291204690933],
      "min": [
        -0.05830356106162071, 0.0010367454960942268, -0.058298178017139435
      ],
      "type": "VEC3"
    },
    {
      "bufferView": 13,
      "componentType": 5126,
      "count": 263,
      "type": "VEC3"
    },
    {
      "bufferView": 14,
      "componentType": 5126,
      "count": 263,
      "type": "VEC2"
    },
    {
      "bufferView": 15,
      "componentType": 5123,
      "count": 1242,
      "type": "SCALAR"
    }
  ],
  "bufferViews": [
    {
      "buffer": 0,
      "byteLength": 3168,
      "byteOffset": 0
    },
    {
      "buffer": 0,
      "byteLength": 3168,
      "byteOffset": 3168
    },
    {
      "buffer": 0,
      "byteLength": 2112,
      "byteOffset": 6336
    },
    {
      "buffer": 0,
      "byteLength": 2100,
      "byteOffset": 8448
    },
    {
      "buffer": 0,
      "byteLength": 792,
      "byteOffset": 10548
    },
    {
      "buffer": 0,
      "byteLength": 792,
      "byteOffset": 11340
    },
    {
      "buffer": 0,
      "byteLength": 528,
      "byteOffset": 12132
    },
    {
      "buffer": 0,
      "byteLength": 384,
      "byteOffset": 12660
    },
    {
      "buffer": 0,
      "byteLength": 3588,
      "byteOffset": 13044
    },
    {
      "buffer": 0,
      "byteLength": 3588,
      "byteOffset": 16632
    },
    {
      "buffer": 0,
      "byteLength": 2392,
      "byteOffset": 20220
    },
    {
      "buffer": 0,
      "byteLength": 2280,
      "byteOffset": 22612
    },
    {
      "buffer": 0,
      "byteLength": 3156,
      "byteOffset": 24892
    },
    {
      "buffer": 0,
      "byteLength": 3156,
      "byteOffset": 28048
    },
    {
      "buffer": 0,
      "byteLength": 2104,
      "byteOffset": 31204
    },
    {
      "buffer": 0,
      "byteLength": 2484,
      "byteOffset": 33308
    }
  ],
  "buffers": [
    {
      "byteLength": 35792,
      "uri": "data:application/octet-stream;base64,"
    }
  ]
}
